# xmcd
#
# Track frame offsets: 
#        150
#        3742
#        30687
#        53699
#        72649
#        87311
#        99038
#        111292
#        134742
#        156284
#        186080
#        203121
#        214280
#        232321
#        248862
#        266645
#        286941
#
# Disc length: 4151 seconds
#
# Revision: 1
# Processed by: cddbd v1.5.2PL0 Copyright (c) Steve Scherf et al.
# Submitted via: ExactAudioCopy v0.99pb5
#
DISCID=03103511
DTITLE=The Laux Trio and Joe Murányi - Talking Drums
DYEAR=2004
DGENRE=Jazz
TTITLE0=Talking Drums-Intro
TTITLE1=Sunny Boy
TTITLE2=I Wanna Be Around My Baby
TTITLE3=Fever
TTITLE4=Geebaby
TTITLE5=Leroy Brown
TTITLE6=In The 1958 Boogie Woogie Club
TTITLE7=Watermelon Man
TTITLE8=Night In Tunisia
TTITLE9=I Showed Them
TTITLE10=Everywhere Calypso
TTITLE11=Ain't She Sweet
TTITLE12=It's Talk Of The Town
TTITLE13=I'll Never Smile Again
TTITLE14=Same Day Twice - Black Milk
TTITLE15=You've Got a Friend - Black Milk
TTITLE16=Talking Drums-Final part
EXTD=YEAR: 2004
EXTT0=
EXTT1=
EXTT2=
EXTT3=
EXTT4=
EXTT5=
EXTT6=
EXTT7=
EXTT8=
EXTT9=
EXTT10=
EXTT11=
EXTT12=
EXTT13=
EXTT14=
EXTT15=
EXTT16=
PLAYORDER=
